<svg xmlns="http://www.w3.org/2000/svg" width="192" height="192" viewBox="0 0 192 192">
  <rect width="192" height="192" rx="32" fill="#4CAF50"/>
  <path d="M96 40c-30.928 0-56 25.072-56 56s25.072 56 56 56 56-25.072 56-56-25.072-56-56-56zm0 10c25.405 0 46 20.595 46 46s-20.595 46-46 46-46-20.595-46-46 20.595-46 46-46z" fill="white"/>
  <path d="M96 70c-14.359 0-26 11.641-26 26s11.641 26 26 26 26-11.641 26-26-11.641-26-26-26zm0 8c9.941 0 18 8.059 18 18s-8.059 18-18 18-18-8.059-18-18 8.059-18 18-18z" fill="white"/>
  <circle cx="96" cy="96" r="10" fill="white"/>
</svg>